<svg xmlns="http://www.w3.org/2000/svg" viewBox="0 0 335.91 84.73"><defs><style>.cls-1{fill:#fff;}</style></defs><title>Asset 1</title><g id="Layer_2" data-name="Layer 2"><g id="Layer_1-2" data-name="Layer 1"><polygon class="cls-1" points="102.38 80.88 100.58 78.08 99.27 78.08 101.8 81.9 101.8 84.61 102.94 84.61 102.94 81.9 105.47 78.08 104.16 78.08 102.38 80.88"/><path class="cls-1" d="M114.12,78a3.38,3.38,0,1,0,3.34,3.38A3.24,3.24,0,0,0,114.12,78Zm0,5.74a2.37,2.37,0,1,1,2.17-2.36A2.17,2.17,0,0,1,114.12,83.71Z"/><path class="cls-1" d="M128.35,82A1.67,1.67,0,1,1,125,82V78.08h-1.15v4a2.82,2.82,0,0,0,5.64,0V78.08h-1.15Z"/><path class="cls-1" d="M141.18,80.12a2,2,0,0,0-2.13-2h-2.87v6.53h1.15V82.17h1.13l1.45,2.44h1.32L139.64,82A1.82,1.82,0,0,0,141.18,80.12Zm-3.85,1V79.09h1.56a1,1,0,1,1,0,2.07Z"/><polygon class="cls-1" points="160.95 83.11 159.6 78.08 158.69 78.08 157.34 83.11 156.06 78.08 154.78 78.08 156.65 84.61 157.87 84.61 159.14 79.79 160.41 84.61 161.63 84.61 163.49 78.08 162.21 78.08 160.95 83.11"/><path class="cls-1" d="M172.39,78a3.38,3.38,0,1,0,3.34,3.38A3.24,3.24,0,0,0,172.39,78Zm0,5.74a2.37,2.37,0,1,1,2.16-2.36A2.17,2.17,0,0,1,172.39,83.71Z"/><path class="cls-1" d="M187.12,80.12a2,2,0,0,0-2.13-2h-2.87v6.53h1.15V82.17h1.13l1.45,2.44h1.32L185.58,82A1.82,1.82,0,0,0,187.12,80.12Zm-3.85,1V79.09h1.56a1,1,0,1,1,0,2.07Z"/><polygon class="cls-1" points="194.7 78.08 193.56 78.08 193.56 84.61 197.58 84.61 197.58 83.6 194.7 83.6 194.7 78.08"/><path class="cls-1" d="M206.35,78.08l-2.43,0,0,6.53h2.42a3.26,3.26,0,1,0,0-6.52Zm0,5.52H205l0-4.51h1.28a2.12,2.12,0,0,1,2.23,2.28A2.14,2.14,0,0,1,206.32,83.6Z"/><path class="cls-1" d="M225.48,78a3.38,3.38,0,1,0,3.34,3.37A3.23,3.23,0,0,0,225.48,78Zm0,5.73a2.37,2.37,0,1,1,2.17-2.36A2.17,2.17,0,0,1,225.48,83.7Z"/><polygon class="cls-1" points="235.34 84.61 236.49 84.61 236.49 81.79 239.75 81.79 239.75 80.78 236.49 80.78 236.49 79.09 239.82 79.09 239.82 78.08 235.34 78.08 235.34 84.61"/><polygon class="cls-1" points="254.15 78.08 253.01 78.08 253.01 84.61 257.03 84.61 257.03 83.6 254.15 83.6 254.15 78.08"/><polygon class="cls-1" points="263.35 84.61 267.83 84.61 267.83 83.6 264.5 83.6 264.5 81.79 267.76 81.79 267.76 80.78 264.5 80.78 264.5 79.09 267.83 79.09 267.83 78.08 263.35 78.08 263.35 84.61"/><path class="cls-1" d="M276.17,78.08l-2.57,6.53h1.31l.48-1.26h3l.48,1.26h1.3l-2.56-6.53Zm-.46,4.27,1.17-3.12,1.18,3.12Z"/><path class="cls-1" d="M291.16,80.12a2,2,0,0,0-2.13-2h-2.87v6.53h1.15V82.17h1.13l1.45,2.44h1.32L289.62,82A1.82,1.82,0,0,0,291.16,80.12Zm-3.85,1V79.09h1.56a1,1,0,1,1,0,2.07Z"/><polygon class="cls-1" points="302.11 82.61 298.77 78.08 297.6 78.08 297.6 84.61 298.74 84.61 298.74 79.95 302.15 84.61 303.25 84.61 303.25 78.08 302.11 78.08 302.11 82.61"/><rect class="cls-1" x="309.93" y="78.08" width="1.15" height="6.53"/><polygon class="cls-1" points="322.26 82.61 318.93 78.08 317.75 78.08 317.75 84.61 318.9 84.61 318.9 79.95 322.31 84.61 323.41 84.61 323.41 78.08 322.26 78.08 322.26 82.61"/><path class="cls-1" d="M332.82,81.1v1h1.95v1a2.43,2.43,0,0,1-1.55.59,2.37,2.37,0,0,1,0-4.73,2.07,2.07,0,0,1,1.69.87l.94-.53A3.08,3.08,0,0,0,333.22,78a3.38,3.38,0,1,0,0,6.76,3.53,3.53,0,0,0,2.69-1.18V81.1Z"/><path class="cls-1" d="M141,14.4H130.42v29c0,6.81-3.88,11.5-11.42,11.5s-11.5-4.69-11.5-11.5v-29H97V43.76c0,12,7.18,20.36,22,20.36s22-8.27,22-20.43Z"/><polygon class="cls-1" points="201.23 14.4 192.74 49.7 183.51 14.4 175.38 14.4 166.08 49.7 157.51 14.4 145.87 14.4 159.86 63.24 170.92 63.24 179.41 29.7 187.98 63.24 199.04 63.24 212.95 14.4 201.23 14.4"/><path class="cls-1" d="M231.11,27c-11.64,0-18.67,8.49-18.67,18.52s7,18.6,18.67,18.6,18.75-8.49,18.75-18.6S242.83,27,231.11,27Zm0,28.85c-5.78,0-9-4.76-9-10.33s3.23-10.25,9-10.25,9.08,4.76,9.08,10.25S236.9,55.85,231.11,55.85Z"/><path class="cls-1" d="M266,39.88c1.54-2.27,5.64-4,8.72-4a12.12,12.12,0,0,1,2.56.22V27A15.21,15.21,0,0,0,266,32.71V27.87h-9.3V63.24H266Z"/><rect class="cls-1" x="283.1" y="14.4" width="9.3" height="48.84"/><path class="cls-1" d="M335.32,63.24V14.4h-9.38v18A13.62,13.62,0,0,0,315,27c-9,0-15.67,7-15.67,18.6,0,11.79,6.74,18.52,15.67,18.52a13.71,13.71,0,0,0,10.91-5.42v4.54Zm-17.43-7.39c-5.27,0-8.94-4.18-8.94-10.25s3.67-10.33,8.94-10.33a10.08,10.08,0,0,1,8.05,4V51.82A10.11,10.11,0,0,1,317.89,55.85Z"/><path class="cls-1" d="M42.36,0A42.37,42.37,0,1,0,84.74,42.37,42.37,42.37,0,0,0,42.36,0ZM70.43,22.87a8.74,8.74,0,0,1,.79,5.3,8.49,8.49,0,0,0-.78-2.46,8.84,8.84,0,0,0-11.91-3.8,9.18,9.18,0,0,0-4.63,5.2,8.72,8.72,0,0,1,16.53-4.24Zm-3.57-5.18a9.5,9.5,0,0,0-15.31,2.56,10,10,0,0,0-.78,7.6A9.57,9.57,0,1,1,66.86,17.69ZM54.5,8.45A11.86,11.86,0,0,1,61,11.94a11.69,11.69,0,0,0-3.35-1.18,12.1,12.1,0,0,0-13.93,10,12.49,12.49,0,0,0,1.89,9.34A12,12,0,0,1,54.5,8.45ZM37.79,8a12.41,12.41,0,0,1,7.7-.8,11.87,11.87,0,0,0-3.61,1C35.54,11,32.83,18.59,35.78,25.2a13.31,13.31,0,0,0,7.28,7A12.71,12.71,0,0,1,37.79,8ZM23.28,14.24A14.76,14.76,0,0,1,30.55,8.4a14,14,0,0,0-3,3.34c-4.53,7-2.18,16.54,5.24,21.35A16.48,16.48,0,0,0,44.9,35.52a15.53,15.53,0,0,1-16.83-.14A15.3,15.3,0,0,1,23.28,14.24Zm-10,9.33a18.2,18.2,0,0,1,6.41-9.24,18.15,18.15,0,0,0-2.36,4.89c-2.91,9.64,2.83,19.9,12.83,22.94A19.3,19.3,0,0,0,44.7,40.83,18.33,18.33,0,0,1,13.25,23.57ZM8.78,34a19.64,19.64,0,0,0,1.29,6.1c4.1,10.77,16.49,16.06,27.68,11.8A22,22,0,0,0,50,40.46,21,21,0,1,1,8.78,34ZM69.29,65.12A35.41,35.41,0,0,1,7.79,51.3a34.06,34.06,0,0,0,6.94,7.89c15,12.45,37.55,10,50.48-5.57A37.26,37.26,0,0,0,73.8,26.69,35.37,35.37,0,0,1,69.29,65.12Z"/></g></g></svg>