<?xml version="1.0" encoding="UTF-8"?>
<svg width="251px" height="42px" viewBox="0 0 251 42" version="1.1" xmlns="http://www.w3.org/2000/svg" xmlns:xlink="http://www.w3.org/1999/xlink">
    <title>Group 8</title>
    <g id="Page-1" stroke="none" stroke-width="1" fill="none" fill-rule="evenodd">
        <g id="0.0-Login-Page" transform="translate(-12.000000, -11.000000)">
            <g id="Group-8" transform="translate(12.000000, 11.000000)">
                <path d="M184.86,17 L184.86,15.25 L180.912,15.25 L180.912,7.662 L178.924,7.662 L178.924,17 L184.86,17 Z M192.787333,17 L192.787333,15.278 L188.167333,15.278 L188.167333,13.108 L192.689333,13.108 L192.689333,11.4 L188.167333,11.4 L188.167333,9.37 L192.787333,9.37 L192.787333,7.662 L186.179333,7.662 L186.179333,17 L192.787333,17 Z M195.464667,17 L196.052667,15.39 L200.224667,15.39 L200.812667,17 L202.982667,17 L199.384667,7.662 L196.892667,7.662 L193.280667,17 L195.464667,17 Z M199.678667,13.668 L196.584667,13.668 L198.138667,9.384 L199.678667,13.668 Z M205.772,17 L205.772,13.654 L207.228,13.654 L209.062,17 L211.344,17 L209.244,13.444 C210.252,13.206 211.288,12.324 211.288,10.672 C211.288,8.936 210.098,7.662 208.152,7.662 L203.784,7.662 L203.784,17 L205.772,17 Z M207.858,11.946 L205.772,11.946 L205.772,9.37 L207.858,9.37 C208.656,9.37 209.258,9.874 209.258,10.658 C209.258,11.442 208.656,11.946 207.858,11.946 Z M214.707333,17 L214.707333,10.728 L219.159333,17 L221.077333,17 L221.077333,7.662 L219.089333,7.662 L219.089333,13.71 L214.763333,7.662 L212.719333,7.662 L212.719333,17 L214.707333,17 Z M224.846667,17 L224.846667,7.662 L222.858667,7.662 L222.858667,17 L224.846667,17 Z M228.616,17 L228.616,10.728 L233.068,17 L234.986,17 L234.986,7.662 L232.998,7.662 L232.998,13.71 L228.672,7.662 L226.628,7.662 L226.628,17 L228.616,17 Z M241.289333,17.182 C242.983333,17.182 244.313333,16.482 245.265333,15.418 L245.265333,11.848 L240.813333,11.848 L240.813333,13.556 L243.305333,13.556 L243.305333,14.69 C242.899333,15.054 242.143333,15.404 241.289333,15.404 C239.595333,15.404 238.363333,14.102 238.363333,12.338 C238.363333,10.574 239.595333,9.272 241.289333,9.272 C242.269333,9.272 243.067333,9.79 243.501333,10.448 L245.153333,9.552 C244.439333,8.446 243.221333,7.508 241.289333,7.508 C238.559333,7.508 236.319333,9.384 236.319333,12.338 C236.319333,15.278 238.559333,17.182 241.289333,17.182 Z M180.912,34 L180.912,30.654 L183.292,30.654 C185.308,30.654 186.428,29.296 186.428,27.672 C186.428,26.034 185.322,24.662 183.292,24.662 L178.924,24.662 L178.924,34 L180.912,34 Z M183.026,28.946 L180.912,28.946 L180.912,26.37 L183.026,26.37 C183.81,26.37 184.398,26.888 184.398,27.658 C184.398,28.442 183.81,28.946 183.026,28.946 Z M193.529333,34 L193.529333,32.25 L189.581333,32.25 L189.581333,24.662 L187.593333,24.662 L187.593333,34 L193.529333,34 Z M196.038667,34 L196.626667,32.39 L200.798667,32.39 L201.386667,34 L203.556667,34 L199.958667,24.662 L197.466667,24.662 L193.854667,34 L196.038667,34 Z M200.252667,30.668 L197.158667,30.668 L198.712667,26.384 L200.252667,30.668 Z M207.62,34 L207.62,26.412 L210.336,26.412 L210.336,24.662 L202.888,24.662 L202.888,26.412 L205.618,26.412 L205.618,34 L207.62,34 Z M213.531333,34 L213.531333,30.108 L218.053333,30.108 L218.053333,28.4 L213.531333,28.4 L213.531333,26.37 L218.151333,26.37 L218.151333,24.662 L211.543333,24.662 L211.543333,34 L213.531333,34 Z M223.894667,34.168 C226.722667,34.168 228.780667,32.152 228.780667,29.338 C228.780667,26.524 226.722667,24.508 223.894667,24.508 C221.080667,24.508 219.022667,26.524 219.022667,29.338 C219.022667,32.152 221.080667,34.168 223.894667,34.168 Z M223.894667,32.404 C222.172667,32.404 221.066667,31.074 221.066667,29.338 C221.066667,27.588 222.172667,26.272 223.894667,26.272 C225.616667,26.272 226.736667,27.588 226.736667,29.338 C226.736667,31.074 225.616667,32.404 223.894667,32.404 Z M232.102,34 L232.102,30.654 L233.558,30.654 L235.392,34 L237.674,34 L235.574,30.444 C236.582,30.206 237.618,29.324 237.618,27.672 C237.618,25.936 236.428,24.662 234.482,24.662 L230.114,24.662 L230.114,34 L232.102,34 Z M234.188,28.946 L232.102,28.946 L232.102,26.37 L234.188,26.37 C234.986,26.37 235.588,26.874 235.588,27.658 C235.588,28.442 234.986,28.946 234.188,28.946 Z M241.037333,34 L241.037333,27.28 L243.669333,34 L244.537333,34 L247.169333,27.28 L247.169333,34 L249.171333,34 L249.171333,24.662 L246.371333,24.662 L244.103333,30.486 L241.835333,24.662 L239.049333,24.662 L239.049333,34 L241.037333,34 Z" id="LEARNINGPLATFORM" fill="#0087EC" fill-rule="nonzero"></path>
                <rect id="Rectangle" fill="#0087EC" x="168" y="0" width="2" height="42"></rect>
                <g id="UWorld_Logo" transform="translate(0.000000, 1.000000)" fill="#1F89E5" fill-rule="nonzero">
                    <polygon id="Fill-1" points="49.9785276 36.763754 48.9381723 38.095646 47.8861342 36.763754 47.1197411 36.763754 48.6005388 38.5800568 48.6005388 39.8705502 49.2693803 39.8705502 49.2693803 38.5800568 50.7443366 36.763754"></polygon>
                    <path d="M54.368932,39.4022074 C53.754181,39.4022074 53.3623415,38.9338647 53.3623415,38.3169221 C53.3623415,37.6953788 53.754181,37.2316367 54.368932,37.2316367 C54.9794946,37.2316367 55.3755226,37.6953788 55.3755226,38.3169221 C55.3755226,38.9338647 54.9794946,39.4022074 54.368932,39.4022074 Z M54.368932,36.763754 C53.4582069,36.763754 52.815534,37.420722 52.815534,38.3169221 C52.815534,39.2131221 53.4582069,39.8705502 54.368932,39.8705502 C55.2796572,39.8705502 55.9223301,39.2131221 55.9223301,38.3169221 C55.9223301,37.420722 55.2796572,36.763754 54.368932,36.763754 Z" id="Fill-2"></path>
                    <path d="M61.0885867,38.5938935 C61.0885867,39.0786584 60.8240476,39.3946671 60.3256875,39.3946671 C59.8232016,39.3946671 59.5582038,39.0786584 59.5582038,38.5938935 L59.5582038,36.763754 L59.0291262,36.763754 L59.0291262,38.6121248 C59.0291262,39.3624118 59.4550478,39.8705502 60.3256875,39.8705502 C61.1917432,39.8705502 61.618123,39.3670865 61.618123,38.6074501 L61.618123,36.763754 L61.0885867,36.763754 L61.0885867,38.5938935 Z" id="Fill-4"></path>
                    <path d="M65.3119291,38.2310108 L65.3119291,37.2434799 L66.1147744,37.2434799 C66.4459609,37.2434799 66.6869173,37.4390824 66.6869173,37.7374833 C66.6869173,38.0354084 66.4459609,38.2310108 66.1147744,38.2310108 L65.3119291,38.2310108 Z M67.2887948,37.7374833 C67.2887948,37.1644775 66.8576373,36.763754 66.1952642,36.763754 L64.7249191,36.763754 L64.7249191,39.8705502 L65.3119291,39.8705502 L65.3119291,38.7107367 L65.8943254,38.7107367 L66.6366752,39.8705502 L67.3139159,39.8705502 L66.496203,38.6502951 C66.8976259,38.5898534 67.2887948,38.2914525 67.2887948,37.7374833 L67.2887948,37.7374833 Z" id="Fill-6"></path>
                    <polygon id="Fill-8" points="76.4596634 39.1577334 75.8172142 36.763754 75.3844764 36.763754 74.742503 39.1577334 74.1371454 36.763754 73.5275081 36.763754 74.4167606 39.8705502 74.998341 39.8705502 75.5984678 37.5788776 76.203825 39.8705502 76.7854058 39.8705502 77.6699029 36.763754 77.0602656 36.763754"></polygon>
                    <path d="M81.8122977,39.4022074 C81.1975467,39.4022074 80.8057072,38.9338647 80.8057072,38.3169221 C80.8057072,37.6953788 81.1975467,37.2316367 81.8122977,37.2316367 C82.4228603,37.2316367 82.8188883,37.6953788 82.8188883,38.3169221 C82.8188883,38.9338647 82.4228603,39.4022074 81.8122977,39.4022074 M81.8122977,36.763754 C80.9015726,36.763754 80.2588997,37.420722 80.2588997,38.3169221 C80.2588997,39.2131221 80.9015726,39.8705502 81.8122977,39.8705502 C82.7230229,39.8705502 83.3656958,39.2131221 83.3656958,38.3169221 C83.3656958,37.420722 82.7230229,36.763754 81.8122977,36.763754" id="Fill-10"></path>
                    <path d="M87.0595019,38.2310108 L87.0595019,37.2434799 L87.8623472,37.2434799 C88.1935337,37.2434799 88.4344901,37.4390824 88.4344901,37.7374833 C88.4344901,38.0354084 88.1935337,38.2310108 87.8623472,38.2310108 L87.0595019,38.2310108 Z M89.0363676,37.7374833 C89.0363676,37.1644775 88.6052101,36.763754 87.942837,36.763754 L86.4724919,36.763754 L86.4724919,39.8705502 L87.0595019,39.8705502 L87.0595019,38.7107367 L87.6418983,38.7107367 L88.384248,39.8705502 L89.0614887,39.8705502 L88.2437758,38.6502951 C88.6451987,38.5898534 89.0363676,38.2914525 89.0363676,37.7374833 L89.0363676,37.7374833 Z" id="Fill-12"></path>
                    <polygon id="Fill-14" points="92.7577755 36.763754 92.1682848 36.763754 92.1682848 39.8705502 94.2394822 39.8705502 94.2394822 39.3908243 92.7577755 39.3908243"></polygon>
                    <path d="M98.4210045,39.3917506 L97.8547081,39.3884258 L97.8653095,37.2453713 L98.431606,37.2486961 C99.0756469,37.2524958 99.4193118,37.7284135 99.4166764,38.3282978 C99.4135694,38.913933 99.0478177,39.3955503 98.4210045,39.3917506 M98.4342566,36.7699286 L97.3617388,36.763754 L97.3462783,39.8643435 L98.4187961,39.8705181 C99.3181561,39.8757427 99.9303922,39.2426107 99.9352753,38.3311476 C99.9396686,37.4201595 99.3336166,36.7751533 98.4342566,36.7699286" id="Fill-16"></path>
                    <path d="M107.184466,39.4022074 C106.569715,39.4022074 106.177875,38.9338647 106.177875,38.3169221 C106.177875,37.6953788 106.569715,37.2316367 107.184466,37.2316367 C107.795029,37.2316367 108.191057,37.6953788 108.191057,38.3169221 C108.191057,38.9338647 107.795029,39.4022074 107.184466,39.4022074 M107.184466,36.763754 C106.273741,36.763754 105.631068,37.420722 105.631068,38.3169221 C105.631068,39.2131221 106.273741,39.8705502 107.184466,39.8705502 C108.095191,39.8705502 108.737864,39.2131221 108.737864,38.3169221 C108.737864,37.420722 108.095191,36.763754 107.184466,36.763754" id="Fill-18"></path>
                    <polygon id="Fill-20" points="111.84466 39.8705502 112.374846 39.8705502 112.374846 38.5289359 113.883907 38.5289359 113.883907 38.04921 112.374846 38.04921 112.374846 37.2434799 113.915858 37.2434799 113.915858 36.763754 111.84466 36.763754"></polygon>
                    <polygon id="Fill-22" points="121.23674 36.763754 120.647249 36.763754 120.647249 39.8705502 122.718447 39.8705502 122.718447 39.3908243 121.23674 39.3908243"></polygon>
                    <polygon id="Fill-24" points="125.307443 39.8705502 127.378641 39.8705502 127.378641 39.3908243 125.837629 39.3908243 125.837629 38.5289359 127.34669 38.5289359 127.34669 38.04921 125.837629 38.04921 125.837629 37.2434799 127.378641 37.2434799 127.378641 36.763754 125.307443 36.763754"></polygon>
                    <path d="M131.482341,38.7944984 L132.038598,37.312964 L132.595329,38.7944984 L131.482341,38.7944984 Z M131.700295,36.763754 L130.485437,39.8705502 L131.101868,39.8705502 L131.329299,39.2742243 L132.748371,39.2742243 L132.975802,39.8705502 L133.592233,39.8705502 L132.377375,36.763754 L131.700295,36.763754 Z" id="Fill-26"></path>
                    <path d="M136.76824,38.2310108 L136.76824,37.2434799 L137.571085,37.2434799 C137.902272,37.2434799 138.143228,37.4390824 138.143228,37.7374833 C138.143228,38.0354084 137.902272,38.2310108 137.571085,38.2310108 L136.76824,38.2310108 Z M138.745106,37.7374833 C138.745106,37.1644775 138.313948,36.763754 137.651575,36.763754 L136.18123,36.763754 L136.18123,39.8705502 L136.76824,39.8705502 L136.76824,38.7107367 L137.350636,38.7107367 L138.092986,39.8705502 L138.770227,39.8705502 L137.952514,38.6502951 C138.353937,38.5898534 138.745106,38.2914525 138.745106,37.7374833 L138.745106,37.7374833 Z" id="Fill-28"></path>
                    <polygon id="Fill-30" points="143.941996 38.9201409 142.414776 36.763754 141.877023 36.763754 141.877023 39.8705502 142.401046 39.8705502 142.401046 37.6532458 143.959845 39.8705502 144.466019 39.8705502 144.466019 36.763754 143.941996 36.763754"></polygon>
                    <polygon id="Fill-32" points="147.572816 39.8705502 148.066883 39.8705502 148.066883 36.763754 147.572816 36.763754"></polygon>
                    <polygon id="Fill-34" points="153.262384 38.9201409 151.735164 36.763754 151.197411 36.763754 151.197411 39.8705502 151.721435 39.8705502 151.721435 37.6532458 153.280233 39.8705502 153.786408 39.8705502 153.786408 36.763754 153.262384 36.763754"></polygon>
                    <path d="M158.42908,38.2025364 L158.42908,38.6655929 L159.41846,38.6655929 L159.41846,39.1332431 C159.269139,39.2591136 158.971004,39.4028999 158.632746,39.4028999 C157.976545,39.4028999 157.489473,38.9444373 157.489473,38.3150849 C157.489473,37.6852731 157.976545,37.2314043 158.632746,37.2314043 C159.005541,37.2314043 159.318912,37.4064286 159.493121,37.6315254 L159.970034,37.3889721 C159.701866,37.0425985 159.279296,36.763754 158.632746,36.763754 C157.673331,36.763754 156.893204,37.3751906 156.893204,38.3150849 C156.893204,39.2545198 157.673331,39.8705502 158.632746,39.8705502 C159.209715,39.8705502 159.6719,39.6546409 160,39.3266426 L160,38.2025364 L158.42908,38.2025364 Z" id="Fill-35"></path>
                    <path d="M67.3139159,6.73139159 L62.2006633,6.73139159 L62.2006633,20.3207739 C62.2006633,23.5125143 60.3317116,25.7089154 56.6992699,25.7089154 C53.0668282,25.7089154 51.1627222,23.5125143 51.1627222,20.3207739 L51.1627222,6.73139159 L46.0841424,6.73139159 L46.0841424,20.4922871 C46.0841424,26.1203599 49.5408128,30.0323625 56.6992699,30.0323625 C63.8582084,30.0323625 67.3139159,26.1550374 67.3139159,20.4580782 L67.3139159,6.73139159 Z" id="Fill-36"></path>
                    <polygon id="Fill-37" points="95.8813903 6.73139159 91.81568 23.5694378 87.3996334 6.73139159 83.5095694 6.73139159 79.0581064 23.5694378 74.9574581 6.73139159 69.3851133 6.73139159 76.0792973 30.0323625 81.3711824 30.0323625 85.4368932 14.0324738 89.5375415 30.0323625 94.8299055 30.0323625 101.488673 6.73139159"></polygon>
                    <path d="M109.756291,26.6263618 C107.034665,26.6263618 105.518835,24.3692877 105.518835,21.7305025 C105.518835,19.125858 107.034665,16.8687838 109.756291,16.8687838 C112.477916,16.8687838 114.028561,19.125858 114.028561,21.7305025 C114.028561,24.3692877 112.477916,26.6263618 109.756291,26.6263618 M109.756291,12.9449838 C104.278696,12.9449838 100.970874,16.9731024 100.970874,21.7305025 C100.970874,26.5220432 104.278696,30.5501618 109.756291,30.5501618 C115.2687,30.5501618 118.576052,26.5220432 118.576052,21.7305025 C118.576052,16.9731024 115.2687,12.9449838 109.756291,12.9449838" id="Fill-38"></path>
                    <path d="M126.647124,19.0207162 C127.382466,17.9506632 129.343218,17.1219614 130.813424,17.1219614 C131.303493,17.1219614 131.723757,17.1568442 132.038835,17.225667 L132.038835,12.9449838 C129.938472,12.9449838 127.837632,14.1536251 126.647124,15.6375576 L126.647124,13.3593347 L122.200647,13.3593347 L122.200647,30.0323625 L126.647124,30.0323625 L126.647124,19.0207162 Z" id="Fill-39"></path>
                    <polygon id="Fill-40" points="134.627832 30.0323625 139.288026 30.0323625 139.288026 6.73139159 134.627832 6.73139159"></polygon>
                    <path d="M151.199888,26.1546468 C148.693999,26.1546468 146.953706,24.1986848 146.953706,21.3504968 C146.953706,18.4676319 148.693999,16.51167 151.199888,16.51167 C152.696388,16.51167 154.296964,17.3008027 155.027867,18.3992154 L155.027867,24.2671013 C154.296964,25.3655141 152.696388,26.1546468 151.199888,26.1546468 L151.199888,26.1546468 Z M159.482201,29.6204577 L159.482201,6.73139159 L155.027867,6.73139159 L155.027867,15.1733309 C153.705302,13.4919721 151.825766,12.6339543 149.842155,12.6339543 C145.562232,12.6339543 142.394822,15.9282554 142.394822,21.3504968 C142.394822,26.875363 145.596923,30.0323625 149.842155,30.0323625 C151.860933,30.0323625 153.705302,29.1401364 155.027867,27.4929859 L155.027867,29.6204577 L159.482201,29.6204577 Z" id="Fill-41"></path>
                    <path d="M33.0267713,30.6428333 C27.0626774,37.7164281 16.4156761,38.6777369 9.26095601,32.7851919 C6.42880984,30.4569709 4.56756261,27.4092976 3.71343842,24.1390598 C4.5928241,25.5083248 5.7005164,26.7646608 7.02173981,27.8520736 C14.1445255,33.7088576 24.9192642,32.5386301 31.0797303,25.2283548 C34.2078649,21.5195759 35.5476769,16.9346555 35.1744741,12.5572424 C38.0580966,18.291216 37.4527742,25.4076297 33.0267713,30.6428333 M4.1867338,15.9855808 C4.23153719,16.9459484 4.43219918,17.9110215 4.79729915,18.8535087 C6.75148955,23.9226124 12.6579109,26.4108163 17.9914208,24.4049137 C20.7044091,23.3890226 22.7443933,21.4075879 23.8354034,19.0398417 C23.6390311,22.8243772 21.2225079,26.3294133 17.4018273,27.7593777 C12.2379983,29.6984639 6.45597784,27.1387383 4.49511458,22.0414023 C3.71963463,20.0265594 3.65814913,17.9209027 4.1867338,15.9855808 M6.31537144,11.089635 C6.86921761,9.2921805 7.96165773,7.80010517 9.37058133,6.74092458 C8.89204303,7.430733 8.50597126,8.20570874 8.24763682,9.04420712 C6.8573018,13.5787799 9.5965048,18.4088504 14.3594865,19.8378738 C16.7841125,20.562502 19.2687941,20.2655926 21.3030586,19.2097058 C19.1215149,21.7214366 15.5529725,22.8681372 12.1383822,21.8465996 C7.52744616,20.4646301 4.91884026,15.6482052 6.31537144,11.089635 M11.097895,6.69857616 C11.9491594,5.39001051 13.1812527,4.46258052 14.5625316,3.95110593 C14.0091621,4.38588286 13.5311004,4.91147358 13.1254867,5.52270219 C10.9649147,8.80564443 12.0878593,13.3063385 15.6258972,15.5715075 C17.4275654,16.7262073 19.5056801,17.0748758 21.398385,16.7144438 C19.0504967,18.2008728 15.9090165,18.2714534 13.3766717,16.6495096 C9.9439694,14.4586856 8.92445395,10.0008105 11.097895,6.69857616 M18.0104861,3.74736306 C19.2077852,3.21989019 20.4875416,3.11401918 21.6834108,3.36763905 C21.1062097,3.42645628 20.5223357,3.57655784 19.9589569,3.82076696 C16.9409244,5.15050679 15.6473456,8.74965043 17.055316,11.8589642 C17.7602544,13.437148 19.0409641,14.5871424 20.5223357,15.1663745 C18.2078117,15.1654334 15.9967167,13.8436927 14.9910236,11.6175784 C13.6283333,8.60472482 14.9838741,5.08321988 18.0104861,3.74736306 M25.9778635,3.97557389 C27.2009007,4.19860881 28.2504439,4.79289806 29.0507087,5.61963298 C28.5607312,5.35942555 28.0283335,5.16979883 27.4539921,5.06533944 C24.3811469,4.49551817 21.4041046,6.59694001 20.8126045,9.7476611 C20.505177,11.3489013 20.8764732,12.91391 21.7139153,14.1448369 C19.912247,12.9237913 18.905124,10.729203 19.3355225,8.47109204 C19.9089106,5.41683117 22.8854762,3.40575262 25.9778635,3.97557389 M31.8661728,8.3247548 C31.553979,8.01231772 31.1898322,7.74175845 30.7827887,7.52531107 C28.5716937,6.36496487 25.7891173,7.26369206 24.5722762,9.52791995 C23.9474119,10.6826198 23.851609,11.9648353 24.1962137,13.1025956 C23.1071101,11.7422709 22.8778501,9.83047575 23.7500864,8.20194444 C24.93118,6.01017937 27.6899249,5.17497475 29.9181786,6.34237903 C30.7908914,6.80256502 31.4557928,7.50648958 31.8661728,8.3247548 M33.5710848,10.7626112 C33.973362,11.5653487 34.0767911,12.4344319 33.9447641,13.2545794 C33.8804188,12.8607392 33.7641206,12.4687813 33.5744212,12.0951742 C32.5682514,10.0732733 30.0187479,9.27382954 27.8972597,10.3113654 C26.8110158,10.8355445 26.0531713,11.738036 25.6914077,12.7576914 C25.6270624,11.1856246 26.4816633,9.64131956 28.0045019,8.90022255 C30.0654578,7.89609486 32.5510927,8.73365214 33.5710848,10.7626112 M20.1920299,0 C9.04122879,0 0,8.92516106 0,19.9357456 C0,30.9453891 9.04122879,39.8705502 20.1920299,39.8705502 C31.348074,39.8705502 40.3883495,30.9453891 40.3883495,19.9357456 C40.3883495,8.92516106 31.348074,0 20.1920299,0" id="Fill-42"></path>
                </g>
            </g>
        </g>
    </g>
</svg>